<?xml version="1.0" standalone="no"?>
<!DOCTYPE svg PUBLIC "-//W3C//DTD SVG 20010904//EN"
 "http://www.w3.org/TR/2001/REC-SVG-20010904/DTD/svg10.dtd">
<svg version="1.0" xmlns="http://www.w3.org/2000/svg"
 width="96.000000pt" height="96.000000pt" viewBox="0 0 96.000000 96.000000"
 preserveAspectRatio="xMidYMid meet">
<metadata>
Created by potrace 1.14, written by Peter Selinger 2001-2017
</metadata>
<g transform="translate(0.000000,96.000000) scale(0.100000,-0.100000)"
fill="#000000" stroke="none">
<path d="M125 795 l-25 -24 0 -226 0 -225 -34 0 c-47 0 -70 -24 -62 -68 7 -48
28 -76 73 -98 35 -17 69 -19 429 -22 l391 -4 28 24 c23 20 28 34 32 80 4 65
-11 88 -58 88 -16 0 -29 6 -30 13 0 6 -2 108 -3 226 l-3 215 -27 23 -27 23
-330 0 -330 0 -24 -25z m675 -65 l0 -30 -284 0 c-209 0 -287 -3 -292 -12 -4
-6 -8 -91 -8 -187 l-1 -176 -28 -3 -27 -3 0 220 0 221 320 0 320 0 0 -30z
m-585 -480 c-3 -5 -24 -10 -47 -10 -31 0 -41 -4 -45 -19 -6 -22 -30 -18 -50 8
-22 28 -15 31 68 31 51 0 78 -4 74 -10z m680 0 c-3 -5 -13 -10 -21 -10 -8 0
-12 5 -9 10 3 6 13 10 21 10 8 0 12 -4 9 -10z"/>
</g>
</svg>
